:FULLY-SPECIFIED
:FORCE-ALL-JOINTS-BE-3DOF
:DEGREES
2141
root -2.41822 15.2725 -0.111522 -177.453 5.21599 -173.012
lfemur -50.4496 17.8922 -21.9777
ltibia 42.4518 -0 0
lfoot 8.19437 19.0414 -0.288294
ltoes 2.25603 -0 0
rfemur -0.5951 -2.11917 26.258
rtibia 44.0912 -0 0
rfoot -18.6253 5.23183 -0.0548743
rtoes -27.6611 0 0
lowerback 9.46443 1.08508 0.564583
upperback -2.13543 1.93047 3.47607
thorax -7.55903 1.05404 3.08522
lowerneck -5.60922 -1.82077 -6.07694
upperneck 8.37286 -2.29799 3.80768
head 3.79044 -1.18598 2.15421
lclavicle 0 0 0
lhumerus 47.5 -8.35541 98.2948
lradius 22.5775 -0 0
lwrist -50.0745 0 0
lhand -34.3774 44.8799 -0.0598009
lfingers 0 0 0
lthumb -7.54338 74.7102 -0.0563843
rclavicle 0 0 0
rhumerus -47.625 21.3226 -95.4657
rradius 109.293 -0 0
rwrist -86.1538 0 0
rhand -2.52046 -32.8224 0.400209
rfingers 0 0 0
rthumb 20.8017 -52.5286 5.41858
2142
root -2.40011 15.2815 -0.369642 -177.871 4.44095 -173.364
lfemur -49.1443 17.4912 -21.8154
ltibia 43.0033 -0 0
lfoot 7.08011 19.2067 -0.326503
ltoes 1.09878 -0 0
rfemur -2.23938 -1.98897 25.6905
rtibia 44.476 -0 0
rfoot -17.5356 5.19965 -0.062144
rtoes -26.6331 0 0
lowerback 9.62645 1.02537 0.208928
upperback -2.06175 1.79917 3.42767
thorax -7.55816 0.999619 3.25986
lowerneck -5.60729 -1.95228 -6.12427
upperneck 8.61112 -2.49913 3.86346
head 3.86816 -1.29247 2.15828
lclavicle 0 0 0
lhumerus 46.6059 -9.40437 97.7051
lradius 23.9645 -0 0
lwrist -48.34 0 0
lhand -34.1831 44.6813 -0.0676783
lfingers 0 0 0
lthumb -7.35578 74.5162 -0.0638114
rclavicle 0 0 0
rhumerus -46.1619 21.1406 -94.5504
rradius 109.661 -0 0
rwrist -85.1362 0 0
rhand -0.420069 -32.7044 0.454128
rfingers 0 0 0
rthumb 22.5187 -50.6285 6.15915
2143
root -2.38169 15.2913 -0.626428 -178.303 3.62951 -173.725
lfemur -47.7867 17.0692 -21.6566
ltibia 43.5787 -0 0
lfoot 5.91728 19.3798 -0.36294
ltoes -0.108775 0 0
rfemur -3.95632 -1.87054 25.0947
rtibia 44.8775 -0 0
rfoot -16.3985 5.16593 -0.0690758
rtoes -25.5603 0 0
lowerback 9.7959 0.964131 -0.162362
upperback -1.98475 1.66223 3.37698
thorax -7.55742 0.942829 3.44209
lowerneck -5.60517 -2.0895 -6.17368
upperneck 8.85957 -2.70927 3.92078
head 3.94926 -1.4036 2.16237
lclavicle 0 0 0
lhumerus 45.6817 -10.5084 97.1056
lradius 25.4118 -0 0
lwrist -46.5301 0 0
lhand -33.9803 44.474 -0.07518
lfingers 0 0 0
lthumb -7.15999 74.3138 -0.0708843
rclavicle 0 0 0
rhumerus -44.6408 20.9275 -93.6022
rradius 110.044 -0 0
rwrist -84.0744 0 0
rhand 1.77177 -32.5791 0.505738
rfingers 0 0 0
rthumb 24.3383 -48.6199 6.87067
2144
root -2.36301 15.3018 -0.881461 -178.744 2.7851 -174.093
lfemur -46.3831 16.6278 -21.5034
ltibia 44.1755 -0 0
lfoot 4.71113 19.5601 -0.39701
ltoes -1.36119 0 0
rfemur -5.73813 -1.76661 24.4732
rtibia 45.2939 -0 0
rfoot -15.2192 5.13082 -0.0755568
rtoes -24.4477 0 0
lowerback 9.97206 0.90178 -0.547627
upperback -1.90477 1.52028 3.32422
thorax -7.55684 0.883926 3.63109
lowerneck -5.60283 -2.23182 -6.22492
upperneck 9.11707 -2.92747 3.97927
head 4.03338 -1.51886 2.16644
lclavicle 0 0 0
lhumerus 44.7318 -11.6634 96.5008
lradius 26.9129 -0 0
lwrist -44.6529 0 0
lhand -33.77 44.259 -0.0821852
lfingers 0 0 0
lthumb -6.95691 74.1038 -0.0774891
rclavicle 0 0 0
rhumerus -43.0697 20.6819 -92.627
rradius 110.442 -0 0
rwrist -82.9732 0 0
rhand 4.04517 -32.4473 0.554165
rfingers 0 0 0
rthumb 26.2538 -46.5106 7.54079
2145
root -2.34414 15.3128 -1.13432 -179.194 1.91121 -174.465
lfemur -44.94 16.1689 -21.3576
ltibia 44.7911 -0 0
lfoot 3.46693 19.7468 -0.428168
ltoes -2.65302 0 0
rfemur -7.57697 -1.67971 23.8292
rtibia 45.7235 -0 0
rfoot -14.0028 5.09448 -0.0814832
rtoes -23.3001 0 0
lowerback 10.1542 0.838711 -0.945207
upperback -1.82215 1.37394 3.2696
thorax -7.55646 0.823169 3.82603
lowerneck -5.6003 -2.37861 -6.27779
upperneck 9.3825 -3.15281 4.03859
head 4.12013 -1.63775 2.17047
lclavicle 0 0 0
lhumerus 43.7609 -12.8648 95.8947
lradius 28.4611 -0 0
lwrist -42.7167 0 0
lhand -33.553 44.0372 -0.0885838
lfingers 0 0 0
lthumb -6.74742 73.8872 -0.0835218
rclavicle 0 0 0
rhumerus -41.4569 20.4025 -91.6308
rradius 110.853 -0 0
rwrist -81.8374 0 0
rhand 6.39022 -32.3093 0.598594
rfingers 0 0 0
rthumb 28.2572 -44.3092 8.15778
2146
root -2.32512 15.3244 -1.38459 -179.649 1.01137 -174.84
lfemur -43.4637 15.6945 -21.2208
ltibia 45.4228 -0 0
lfoot 2.18993 19.9391 -0.455921
ltoes -3.97879 0 0
rfemur -9.46496 -1.61206 23.1658
rtibia 46.1643 -0 0
rfoot -12.7544 5.05705 -0.0867617
rtoes -22.1223 0 0
lowerback 10.3416 0.775299 -1.35343
upperback -1.73721 1.22383 3.21333
thorax -7.55627 0.760814 4.02609
lowerneck -5.59755 -2.52926 -6.33207
upperneck 9.65471 -3.38436 4.09839
head 4.20916 -1.75978 2.17442
lclavicle 0 0 0
lhumerus 42.773 -14.108 95.2915
lradius 30.0501 -0 0
lwrist -40.7296 0 0
lhand -33.3303 43.8096 -0.094277
lfingers 0 0 0
lthumb -6.5324 73.6649 -0.0888896
rclavicle 0 0 0
rhumerus -39.8105 20.0886 -90.6195
rradius 111.274 -0 0
rwrist -80.6717 0 0
rhand 8.79702 -32.166 0.638284
rfingers 0 0 0
rthumb 30.3398 -42.0252 8.71079
2147
root -2.30601 15.3364 -1.63184 179.893 0.0891616 -175.216
lfemur -41.9603 15.2065 -21.0945
ltibia 46.0682 -0 0
lfoot 0.885393 20.1361 -0.479839
ltoes -5.33305 0 0
rfemur -11.3941 -1.56555 22.4861
rtibia 46.6145 -0 0
rfoot -11.4792 5.01872 -0.0913106
rtoes -20.9193 0 0
lowerback 10.5334 0.711905 -1.77064
upperback -1.6503 1.07059 3.15562
thorax -7.55631 0.697119 4.23044
lowerneck -5.5946 -2.68314 -6.38752
upperneck 9.9326 -3.62117 4.15836
head 4.3001 -1.88443 2.17825
lclavicle 0 0 0
lhumerus 41.7721 -15.388 94.6947
lradius 31.6732 -0 0
lwrist -38.6998 0 0
lhand -33.1028 43.577 -0.0991789
lfingers 0 0 0
lthumb -6.31274 73.4378 -0.0935112
rclavicle 0 0 0
rhumerus -38.1386 19.7401 -89.599
rradius 111.704 -0 0
rwrist -79.4809 0 0
rhand 11.2557 -32.018 0.672577
rfingers 0 0 0
rthumb 32.4915 -39.6694 9.19003
2148
root -2.28686 15.3488 -1.87567 179.432 -0.851763 -175.59
lfemur -40.4361 14.7072 -20.98
ltibia 46.7245 -0 0
lfoot -0.441415 20.3369 -0.499558
ltoes -6.71035 0 0
rfemur -13.3565 -1.54174 21.7937
rtibia 47.0725 -0 0
rfoot -10.1823 4.97963 -0.0950605
rtoes -19.6957 0 0
lowerback 10.729 0.648867 -2.19515
upperback -1.56175 0.914824 3.09669
thorax -7.55658 0.632341 4.43827
lowerneck -5.59144 -2.83964 -6.44393
upperneck 10.215 -3.8623 4.21817
head 4.39259 -2.01121 2.18195
lclavicle 0 0 0
lhumerus 40.7618 -16.7 94.1079
lradius 33.324 -0 0
lwrist -36.6354 0 0
lhand -32.8714 43.3404 -0.103217
lfingers 0 0 0
lthumb -6.08932 73.2068 -0.0973184
rclavicle 0 0 0
rhumerus -36.4491 19.3572 -88.5749
rradius 112.142 -0 0
rwrist -78.2699 0 0
rhand 13.7562 -31.8662 0.700909
rfingers 0 0 0
rthumb 34.7011 -37.2535 9.587
2149
root -2.26774 15.3616 -2.11564 178.972 -1.80771 -175.962
lfemur -38.8969 14.1986 -20.8783
ltibia 47.3892 -0 0
lfoot -1.78522 20.5407 -0.514783
ltoes -8.10522 0 0
rfemur -15.3441 -1.54179 21.0921
rtibia 47.5363 -0 0
rfoot -8.86882 4.93998 -0.0979558
rtoes -18.4566 0 0
lowerback 10.9275 0.586504 -2.62529
upperback -1.47192 0.757168 3.03676
thorax -7.55709 0.566737 4.64875
lowerneck -5.58808 -2.99813 -6.50108
upperneck 10.5009 -4.10681 4.27756
head 4.48625 -2.13961 2.18548
lclavicle 0 0 0
lhumerus 39.7457 -18.0386 93.5342
lradius 34.9958 -0 0
lwrist -34.5447 0 0
lhand -32.637 43.1009 -0.106333
lfingers 0 0 0
lthumb -5.86304 72.9728 -0.100256
rclavicle 0 0 0
rhumerus -34.7499 18.9406 -87.5529
rradius 112.585 -0 0
rwrist -77.0434 0 0
rhand 16.2888 -31.7112 0.722822
rfingers 0 0 0
rthumb 36.9566 -34.7902 9.89469
